<svg width="32px" height="32px" viewBox="0 0 32 32" fill="none" xmlns="http://www.w3.org/2000/svg" transform="rotate(0) scale(1, 1)">
<path d="M16 19.0804C8.02 19.0804 2 16.3504 2 12.7404C2 9.13039 8.02 6.40039 16 6.40039C23.98 6.40039 30 9.13039 30 12.7404C30 16.3504 23.98 19.0804 16 19.0804ZM16 7.59039C8.94 7.59039 3.2 9.90039 3.2 12.7304C3.2 15.5604 8.94 17.8704 16 17.8704C23.06 17.8704 28.8 15.5604 28.8 12.7304C28.8 9.90039 23.06 7.59039 16 7.59039Z" fill="#f5b62dd3"/>
<path d="M4.90005 24.0901C4.57005 24.0901 4.30005 23.8201 4.30005 23.4901V18.9701C4.30005 18.6401 4.57005 18.3701 4.90005 18.3701C5.23005 18.3701 5.50005 18.6401 5.50005 18.9701V23.4901C5.50005 23.8201 5.23005 24.0901 4.90005 24.0901Z" fill="#f5b62dd3"/>
<path d="M9.33999 25.7395C9.00999 25.7395 8.73999 25.4695 8.73999 25.1395V20.6195C8.73999 20.2895 9.00999 20.0195 9.33999 20.0195C9.66999 20.0195 9.93999 20.2895 9.93999 20.6195V25.1395C9.93999 25.4695 9.66999 25.7395 9.33999 25.7395Z" fill="#f5b62dd3"/>
<path d="M13.7799 26.3098C13.4499 26.3098 13.1799 26.0398 13.1799 25.7098V21.1898C13.1799 20.8598 13.4499 20.5898 13.7799 20.5898C14.1099 20.5898 14.3799 20.8598 14.3799 21.1898V25.7098C14.3799 26.0398 14.1099 26.3098 13.7799 26.3098Z" fill="#f5b62dd3"/>
<path d="M18.2201 26.3098C17.8901 26.3098 17.6201 26.0398 17.6201 25.7098V21.1898C17.6201 20.8598 17.8901 20.5898 18.2201 20.5898C18.5501 20.5898 18.8201 20.8598 18.8201 21.1898V25.7098C18.8201 26.0398 18.5501 26.3098 18.2201 26.3098Z" fill="#f5b62dd3"/>
<path d="M22.6601 25.7395C22.3301 25.7395 22.0601 25.4695 22.0601 25.1395V20.6195C22.0601 20.2895 22.3301 20.0195 22.6601 20.0195C22.9901 20.0195 23.2601 20.2895 23.2601 20.6195V25.1395C23.2601 25.4695 22.9901 25.7395 22.6601 25.7395Z" fill="#f5b62dd3"/>
<path d="M27.1 24.0901C26.77 24.0901 26.5 23.8201 26.5 23.4901V18.9701C26.5 18.6401 26.77 18.3701 27.1 18.3701C27.43 18.3701 27.7 18.6401 27.7 18.9701V23.4901C27.7 23.8201 27.43 24.0901 27.1 24.0901Z" fill="#f5b62dd3"/>
</svg>