<svg width="32" height="32" viewBox="0 0 32 32" fill="none" xmlns="http://www.w3.org/2000/svg">
<path d="M15.9999 17.3504C11.2599 17.3504 7.3999 13.4904 7.3999 8.75039C7.3999 8.42039 7.6699 8.15039 7.9999 8.15039C8.3299 8.15039 8.5999 8.42039 8.5999 8.75039C8.5999 12.8304 11.9199 16.1504 15.9999 16.1504C20.0799 16.1504 23.3999 12.8304 23.3999 8.75039C23.3999 8.42039 23.6699 8.15039 23.9999 8.15039C24.3299 8.15039 24.5999 8.42039 24.5999 8.75039C24.5999 13.4904 20.7399 17.3504 15.9999 17.3504Z" fill="#1F2937"/>
<path d="M16 27.3509C11.47 27.3509 7.10001 25.6809 3.68001 22.6509C3.43001 22.4309 3.41001 22.0509 3.63001 21.8009C3.85001 21.5509 4.23001 21.5309 4.48001 21.7509C7.68001 24.5809 11.77 26.1509 16 26.1509C20.23 26.1509 24.32 24.5909 27.52 21.7509C27.77 21.5309 28.15 21.5509 28.37 21.8009C28.59 22.0509 28.57 22.4309 28.32 22.6509C24.9 25.6809 20.53 27.3509 16 27.3509Z" fill="#1F2937"/>
<path d="M15.9999 22.3502C12.6499 22.3502 9.41994 21.1102 6.91994 18.8602C6.66994 18.6402 6.64994 18.2602 6.87994 18.0102C7.09994 17.7602 7.47994 17.7502 7.72994 17.9702C10.0099 20.0202 12.9499 21.1502 16.0099 21.1502C19.0699 21.1502 22.0099 20.0202 24.2899 17.9702C24.5399 17.7502 24.9099 17.7702 25.1399 18.0102C25.3599 18.2602 25.3399 18.6402 25.0999 18.8602C22.5999 21.1102 19.3699 22.3502 16.0199 22.3502H15.9999Z" fill="#1F2937"/>
<path d="M24.62 8.85039H7.62002C5.63002 8.85039 4.02002 7.23039 4.02002 5.25039C4.02002 4.92039 4.29002 4.65039 4.62002 4.65039H27.62C27.95 4.65039 28.22 4.92039 28.22 5.25039C28.22 7.23039 26.61 8.85039 24.62 8.85039ZM5.30002 5.85039C5.57002 6.88039 6.51002 7.65039 7.62002 7.65039H24.62C25.74 7.65039 26.68 6.88039 26.94 5.85039H5.30002Z" fill="#1F2937"/>
<path d="M15.9999 14.3498C15.6699 14.3498 15.3999 14.0798 15.3999 13.7498C15.3999 13.4198 15.6699 13.1498 15.9999 13.1498C16.5899 13.1498 17.1699 13.0298 17.7099 12.7998C18.2299 12.5798 18.7099 12.2598 19.1099 11.8598C19.5199 11.4498 19.8299 10.9798 20.0499 10.4598C20.1799 10.1598 20.5299 10.0098 20.8399 10.1398C21.1499 10.2698 21.2899 10.6198 21.1599 10.9298C20.8799 11.5998 20.4699 12.1898 19.9599 12.7098C19.4399 13.2298 18.8499 13.6298 18.1799 13.9098C17.4899 14.1998 16.7599 14.3498 15.9999 14.3498Z" fill="#1F2937"/>
</svg>
