<svg width="9" height="6" viewBox="0 0 55 6" fill="none" xmlns="http://www.w3.org/2000/svg">
<path d="M3.30833 4.74833C3.40129 4.84206 3.5119 4.91645 3.63376 4.96722C3.75561 5.01799 3.88632 5.04413 4.01833 5.04413C4.15034 5.04413 4.28105 5.01799 4.40291 4.96722C4.52477 4.91645 4.63537 4.84206 4.72833 4.74833L7.72833 1.74833C7.8242 1.65509 7.90076 1.54389 7.95365 1.42106C8.00653 1.29823 8.03471 1.16619 8.03657 1.03247C8.03842 0.898758 8.01392 0.765985 7.96447 0.641737C7.91501 0.517488 7.84157 0.404197 7.74833 0.308332C7.65509 0.212467 7.54389 0.135906 7.42106 0.0830189C7.29823 0.030132 7.16619 0.0019555 7.03247 9.83328e-05C6.89876 -0.00175884 6.76599 0.0227394 6.64174 0.0721947C6.51749 0.12165 6.4042 0.195094 6.30833 0.288332L4.01833 2.62833L1.72833 0.288332C1.53472 0.100028 1.27424 -0.00365239 1.00419 9.83328e-05C0.734138 0.00384906 0.476636 0.114724 0.288333 0.308332C0.100029 0.50194 -0.0036524 0.762422 9.83324e-05 1.03247C0.00384906 1.30253 0.114724 1.56003 0.308332 1.74833L3.30833 4.74833Z" fill="#374151"/>
</svg>
