<?xml version="1.0" standalone="no"?>
<!DOCTYPE svg PUBLIC "-//W3C//DTD SVG 20010904//EN"
 "http://www.w3.org/TR/2001/REC-SVG-20010904/DTD/svg10.dtd">
<svg version="1.0" xmlns="http://www.w3.org/2000/svg"
 width="512.000000pt" height="512.000000pt" viewBox="0 0 512.000000 512.000000"
 preserveAspectRatio="xMidYMid meet">
<metadata>
Created by potrace 1.16, written by Peter Selinger 2001-2019
</metadata>
<g transform="translate(0.000000,512.000000) scale(0.100000,-0.100000)"
fill="#f5b62d93" stroke="none">
<path d="M2256 4784 c-723 -98 -1359 -548 -1691 -1195 -120 -234 -191 -462
-230 -734 -19 -130 -19 -448 -1 -585 89 -656 451 -1232 1001 -1593 201 -131
498 -256 731 -307 302 -66 668 -68 964 -5 427 90 835 316 1140 631 320 331
521 727 605 1194 23 126 32 481 15 621 -67 587 -362 1126 -815 1492 -141 114
-257 187 -430 272 -228 112 -440 176 -695 211 -132 17 -460 17 -594 -2z m-174
-1531 l478 -478 480 480 480 480 107 -108 108 -107 -480 -480 -480 -480 480
-480 480 -480 -108 -107 -107 -108 -480 480 -480 480 -480 -480 -480 -480
-107 108 -108 107 480 480 480 480 -480 480 -480 480 105 105 c58 58 107 105
110 105 3 0 220 -215 482 -477z"/>
</g>
</svg>
