<?xml version="1.0" standalone="no"?>
<!DOCTYPE svg PUBLIC "-//W3C//DTD SVG 20010904//EN"
 "http://www.w3.org/TR/2001/REC-SVG-20010904/DTD/svg10.dtd">
<svg version="1.0" xmlns="http://www.w3.org/2000/svg"
 width="512.000000pt" height="512.000000pt" viewBox="0 0 512.000000 512.000000"
 preserveAspectRatio="xMidYMid meet">
<metadata>
Created by potrace 1.16, written by Peter Selinger 2001-2019
</metadata>
<g transform="translate(0.000000,512.000000) scale(0.100000,-0.100000)"
fill="#000000" stroke="none">
<path d="M968 4461 c-145 -47 -269 -174 -312 -320 -14 -49 -16 -217 -16 -1582
0 -1471 1 -1529 19 -1588 46 -147 172 -272 320 -315 49 -14 217 -16 1581 -16
1364 0 1532 2 1581 16 148 43 274 168 320 315 18 59 19 117 19 1589 0 1472 -1
1530 -19 1589 -46 147 -172 272 -320 315 -49 14 -217 16 -1585 15 -1457 0
-1534 -1 -1588 -18z m855 -962 c12 -6 183 -171 380 -367 l357 -357 358 357
c196 196 367 361 379 367 35 18 104 13 141 -9 62 -38 92 -132 61 -193 -6 -12
-171 -183 -367 -379 l-357 -358 357 -357 c196 -197 361 -368 367 -380 31 -61
1 -155 -61 -193 -37 -22 -106 -27 -141 -9 -12 6 -183 171 -379 367 l-358 357
-357 -357 c-197 -196 -368 -361 -380 -367 -61 -31 -155 -1 -193 61 -22 37 -27
106 -9 141 6 12 171 183 367 380 l357 357 -357 358 c-196 196 -361 367 -367
379 -31 61 -1 155 61 193 37 22 106 27 141 9z"/>
</g>
</svg>
